#!OML:ASF H:\LiuWeirdWalks\Patient Classification 1\Patient 1\Session 1\male.ASF
:FULLY-SPECIFIED
:DEGREES
130
root -1.09877 17.5813 -27.6163 8.45953 0.548115 -5.15661
lowerback 6.96461 -2.63531 6.53154
upperback 0.0745052 -2.75943 5.6294
thorax -3.86811 -1.43905 2.48566
lowerneck -14.8959 4.37635 10.9518
upperneck 22.2503 6.81019 -13.9506
head 10.4392 2.53783 -5.95896
rclavicle -4.65156e-014 1.59028e-015
rhumerus -37.4788 -10.4871 -71.4546
rradius 21.0472
rwrist 0.733977
rhand -14.7882 -2.50819
rfingers 7.12502
rthumb 11.369 -32.18
lclavicle -4.65156e-014 1.59028e-015
lhumerus -36.4608 -5.52901 87.5624
lradius 44.004
lwrist 10.7826
lhand -10.5348 -0.69196
lfingers 7.12502
lthumb 15.4686 28.7092
rfemur -1.18857 -0.525188 27.8437
rtibia 21.4325
rfoot -20.3318 -20.7623
rtoes -5.48215
lfemur -42.9242 7.32405 -12.6101
ltibia 43.8167
lfoot -9.95705 9.4489
ltoes -18.4961
131
root -1.09996 17.5684 -27.5254 8.58652 0.733322 -5.23466
lowerback 6.98675 -2.56416 6.63397
upperback 0.0523092 -2.65049 5.65811
thorax -3.90664 -1.38721 2.44964
lowerneck -14.9076 4.3491 10.9446
upperneck 22.1039 6.7681 -13.9903
head 10.3837 2.51525 -5.97225
rclavicle 3.99557e-014 1.74931e-014
rhumerus -37.5123 -10.756 -71.3136
rradius 20.7693
rwrist 1.18881
rhand -14.8963 -2.57366
rfingers 7.12502
rthumb 11.2648 -32.2512
lclavicle 3.99557e-014 1.74931e-014
lhumerus -36.6411 -5.46327 87.5412
lradius 44.1815
lwrist 10.7098
lhand -10.4574 -0.612879
lfingers 7.12502
lthumb 15.5431 28.7825
rfemur -0.741654 -0.5647 27.998
rtibia 20.8935
rfoot -20.2598 -21.0339
rtoes -5.55241
lfemur -43.2 6.92173 -12.4885
ltibia 42.4618
lfoot -9.95694 9.07819
ltoes -18.5608
132
root -1.10068 17.5539 -27.4326 8.70089 0.930195 -5.32178
lowerback 7.01881 -2.50344 6.72084
upperback 0.0622685 -2.55752 5.70594
thorax -3.91537 -1.34212 2.4431
lowerneck -15.0096 4.36065 10.9568
upperneck 21.9713 6.78028 -14.0707
head 10.3617 2.51163 -5.99705
rclavicle 1.76918e-014 -3.02153e-014
rhumerus -37.4469 -10.9574 -71.2193
rradius 20.4961
rwrist 1.63534
rhand -15.0116 -2.69295
rfingers 7.12502
rthumb 11.1536 -32.3765
lclavicle 1.76918e-014 -3.02153e-014
lhumerus -36.7531 -5.31459 87.51
lradius 44.3614
lwrist 10.6591
lhand -10.3566 -0.489015
lfingers 7.12502
lthumb 15.6402 28.8988
rfemur -0.273855 -0.625378 28.1606
rtibia 20.3543
rfoot -20.2047 -21.2885
rtoes -5.61196
lfemur -43.461 6.43015 -12.2993
ltibia 41.2174
lfoot -10.0005 8.74263
ltoes -18.6299
133
root -1.10145 17.5373 -27.3382 8.80005 1.13899 -5.42253
lowerback 7.06474 -2.45683 6.79657
upperback 0.0753733 -2.48238 5.76762
thorax -3.92759 -1.30558 2.45975
lowerneck -15.1104 4.4093 11.035
upperneck 21.8453 6.84574 -14.2169
head 10.3552 2.5312 -6.05119
rclavicle -2.04748e-014 6.20208e-014
rhumerus -37.3432 -11.1116 -71.1467
rradius 20.2044
rwrist 2.12155
rhand -15.1042 -2.76609
rfingers 7.12502
rthumb 11.0643 -32.4545
lclavicle -2.04748e-014 6.20208e-014
lhumerus -36.8741 -5.09661 87.4669
lradius 44.5497
lwrist 10.6214
lhand -10.2748 -0.439455
lfingers 7.12502
lthumb 15.719 28.9421
rfemur 0.213384 -0.687182 28.3428
rtibia 19.821
rfoot -20.1527 -21.5426
rtoes -5.69339
lfemur -43.7166 5.87043 -12.0434
ltibia 40.1128
lfoot -10.0525 8.47043
ltoes -18.6724
134
root -1.10167 17.5189 -27.2414 8.89623 1.34261 -5.52951
lowerback 7.09288 -2.37212 6.89467
upperback 0.0855745 -2.35783 5.78987
thorax -3.93486 -1.24523 2.41635
lowerneck -15.1956 4.32988 10.9386
upperneck 21.7374 6.73042 -14.1816
head 10.3107 2.47211 -6.03222
rclavicle -5.4467e-014 5.08889e-014
rhumerus -37.2873 -11.3962 -71.0789
rradius 19.9132
rwrist 2.67805
rhand -15.1809 -2.85268
rfingers 7.12502
rthumb 10.9902 -32.545
lclavicle -5.4467e-014 5.08889e-014
lhumerus -36.9983 -4.99889 87.4072
lradius 44.7473
lwrist 10.6085
lhand -10.2016 -0.390707
lfingers 7.12502
lthumb 15.7895 28.9853
rfemur 0.706603 -0.757186 28.5254
rtibia 19.3011
rfoot -20.1069 -21.7733
rtoes -5.806
lfemur -43.9795 5.28083 -11.7504
ltibia 39.1757
lfoot -10.0844 8.2816
ltoes -18.7253
135
root -1.10181 17.4986 -27.1428 8.98459 1.56238 -5.63132
lowerback 7.10747 -2.27876 6.9876
upperback 0.0952323 -2.2243 5.7949
thorax -3.93509 -1.18038 2.35601
lowerneck -15.2363 4.21432 10.8123
upperneck 21.5969 6.55994 -14.0989
head 10.2347 2.39207 -5.99648
rclavicle 3.57812e-015 -5.56597e-014
rhumerus -37.2383 -11.7154 -71.0287
rradius 19.617
rwrist 3.26956
rhand -15.2403 -2.93661
rfingers 7.12502
rthumb 10.933 -32.632
lclavicle 3.57812e-015 -5.56597e-014
lhumerus -37.1211 -4.9419 87.3325
lradius 44.9547
lwrist 10.6493
lhand -10.1441 -0.345273
lfingers 7.12502
lthumb 15.8449 29.0264
rfemur 1.20299 -0.843988 28.703
rtibia 18.8099
rfoot -20.0904 -21.9907
rtoes -5.93204
lfemur -44.2572 4.68798 -11.4564
ltibia 38.4237
lfoot -10.0561 8.15845
ltoes -18.7971
136
root -1.10173 17.476 -27.0421 9.06085 1.78957 -5.73084
lowerback 7.11845 -2.17188 7.08823
upperback 0.108886 -2.07386 5.77476
thorax -3.9296 -1.10735 2.26276
lowerneck -15.2811 4.05075 10.6173
upperneck 21.4672 6.3166 -13.9223
head 10.1473 2.28223 -5.92392
rclavicle -5.36719e-015 0
rhumerus -37.1843 -12.1437 -70.9705
rradius 19.2877
rwrist 3.94244
rhand -15.2741 -2.97699
rfingers 7.12502
rthumb 10.9003 -32.6741
lclavicle -5.36719e-015 0
lhumerus -37.2442 -4.92896 87.2389
lradius 45.1809
lwrist 10.7201
lhand -10.0949 -0.276498
lfingers 7.12502
lthumb 15.8923 29.0914
rfemur 1.70066 -0.94816 28.8754
rtibia 18.3591
rfoot -20.1076 -22.1862
rtoes -6.06904
lfemur -44.5468 4.12564 -11.1758
ltibia 37.8679
lfoot -9.9707 8.0864
ltoes -18.8162
137
root -1.10197 17.4506 -26.94 9.12923 2.02673 -5.84407
lowerback 7.13825 -2.07242 7.17256
upperback 0.148638 -1.93534 5.77068
thorax -3.90013 -1.03907 2.19612
lowerneck -15.3938 3.9248 10.4425
upperneck 21.3357 6.12131 -13.7643
head 10.0823 2.19191 -5.85526
rclavicle 8.34896e-015 -2.8625e-014
rhumerus -37.0245 -12.5855 -70.9287
rradius 18.9284
rwrist 4.64879
rhand -15.2848 -3.01184
rfingers 7.12502
rthumb 10.89 -32.7095
lclavicle 8.34896e-015 -2.8625e-014
lhumerus -37.3061 -4.85338 87.1356
lradius 45.4146
lwrist 10.8164
lhand -10.0273 -0.117879
lfingers 7.12502
lthumb 15.9574 29.2448
rfemur 2.18754 -1.04929 29.0679
rtibia 17.9543
rfoot -20.1462 -22.3864
rtoes -6.22986
lfemur -44.8597 3.64232 -10.9158
ltibia 37.5104
lfoot -9.80397 7.99016
ltoes -18.7389
138
root -1.10182 17.423 -26.8355 9.18972 2.28078 -5.94267
lowerback 7.15492 -1.98794 7.23042
upperback 0.19144 -1.8193 5.77465
thorax -3.86452 -0.981187 2.15481
lowerneck -15.4986 3.86269 10.3804
upperneck 21.1864 6.0121 -13.7074
head 10.0299 2.14064 -5.83184
rclavicle 1.98785e-016 3.65764e-014
rhumerus -36.8158 -12.9805 -70.9073
rradius 18.5623
rwrist 5.33747
rhand -15.2863 -3.08431
rfingers 7.12502
rthumb 10.8886 -32.782
lclavicle 1.98785e-016 3.65764e-014
lhumerus -37.3674 -4.70834 87.0323
lradius 45.6545
lwrist 10.9218
lhand -9.99409 0.0482724
lfingers 7.12502
lthumb 15.9893 29.4084
rfemur 2.6684 -1.1863 29.2413
rtibia 17.595
rfoot -20.2149 -22.5681
rtoes -6.4116
lfemur -45.1902 3.23662 -10.7216
ltibia 37.3508
lfoot -9.55184 7.84621
ltoes -18.5777
